<?xml version="1.0" standalone="no"?>
<!DOCTYPE svg PUBLIC "-//W3C//DTD SVG 20010904//EN"
 "http://www.w3.org/TR/2001/REC-SVG-20010904/DTD/svg10.dtd">
<svg version="1.0" xmlns="http://www.w3.org/2000/svg"
 width="256.000000pt" height="256.000000pt" viewBox="0 0 256.000000 256.000000"
 preserveAspectRatio="xMidYMid meet">
<metadata>
Created by potrace 1.11, written by Peter Selinger 2001-2013
</metadata>
<g transform="translate(0.000000,256.000000) scale(0.100000,-0.100000)"
fill="#000000" stroke="none">
<path d="M1085 2544 c-514 -86 -920 -457 -1045 -953 -60 -241 -49 -486 32
-726 116 -342 388 -631 722 -767 356 -146 776 -121 1109 65 214 120 415 331
525 552 153 308 171 690 47 1019 -113 301 -360 567 -655 705 -223 104 -504
145 -735 105z m496 -1207 c131 -307 239 -561 239 -563 0 -2 -28 -4 -62 -4
l-63 0 -61 148 -62 147 -293 0 -294 0 -60 -145 -61 -145 -63 -3 c-58 -3 -63
-1 -57 15 4 10 114 264 244 566 l236 548 59 -3 59 -3 239 -558z"/>
<path d="M1155 1478 c-66 -159 -121 -294 -123 -299 -2 -5 100 -9 242 -9 171 0
246 3 246 11 0 12 -229 571 -239 581 -3 4 -60 -124 -126 -284z"/>
</g>
</svg>
